<?xml version="1.0" encoding="utf-8"?>
<!-- Generator: Adobe Illustrator 26.1.0, SVG Export Plug-In . SVG Version: 6.00 Build 0)  -->
<svg version="1.1" id="Layer_1" xmlns="http://www.w3.org/2000/svg" xmlns:xlink="http://www.w3.org/1999/xlink" x="0px" y="0px"
	 viewBox="0 0 1000 1000" style="enable-background:new 0 0 1000 1000;" xml:space="preserve">
<style type="text/css">
	.st0{fill:none;stroke:#000000;stroke-width:60;stroke-miterlimit:10;}
	.st1{fill:none;stroke:#000000;stroke-width:60;stroke-miterlimit:10;stroke-dasharray:9.9084,19.8167;}
	.st2{fill:none;stroke:#000000;stroke-width:60;stroke-miterlimit:10;stroke-dasharray:10.1092,20.2183;}
	.st3{fill:none;stroke:#000000;stroke-width:60;stroke-miterlimit:10;stroke-dasharray:10.122,20.2439;}
	.st4{fill:none;stroke:#000000;stroke-width:35;stroke-miterlimit:10;}
</style>
<g>
	<g>
		<g>
			<path class="st0" d="M647.58,510.5c0,1.67,0.01,3.34,0.03,5"/>
			<path class="st1" d="M648.38,535.3c8.84,137.23,90.38,246.06,192.32,255.79"/>
			<path class="st0" d="M850.59,791.72c1.66,0.05,3.33,0.08,5,0.08"/>
		</g>
	</g>
	<g>
		<g>
			<path class="st0" d="M841.06,208.2c-1.67,0-3.34,0.03-5,0.1"/>
			<path class="st2" d="M816.01,210.71c-91.95,18.53-163.57,137.73-168.19,284.67"/>
			<path class="st0" d="M647.61,505.49c-0.02,1.66-0.03,3.33-0.03,5"/>
		</g>
	</g>
</g>
<g>
	<g>
		<g>
			<path class="st0" d="M351.17,505.23c0-1.67-0.01-3.34-0.03-5"/>
			<path class="st1" d="M350.37,480.42c-8.84-137.23-90.38-246.06-192.32-255.79"/>
			<path class="st0" d="M148.17,224.01c-1.66-0.05-3.33-0.08-5-0.08"/>
		</g>
	</g>
	<g>
		<g>
			<path class="st0" d="M157.36,807.52c1.67,0,3.34-0.03,5-0.1"/>
			<path class="st3" d="M182.44,805.03c92.31-18.49,164.22-137.7,168.87-284.67"/>
			<path class="st0" d="M351.52,510.23c0.02-1.66,0.03-3.33,0.03-5"/>
		</g>
	</g>
</g>
<circle class="st4" cx="500" cy="510" r="459.72"/>
</svg>
